<?xml version="1.0" standalone="no"?>
<!DOCTYPE svg PUBLIC "-//W3C//DTD SVG 20010904//EN"
 "http://www.w3.org/TR/2001/REC-SVG-20010904/DTD/svg10.dtd">
<svg version="1.0" xmlns="http://www.w3.org/2000/svg"
 width="500.000000pt" height="500.000000pt" viewBox="0 0 500.000000 500.000000"
 preserveAspectRatio="xMidYMid meet">
<metadata>
Created by potrace 1.14, written by Peter Selinger 2001-2017
</metadata>
<g transform="translate(0.000000,500.000000) scale(0.100000,-0.100000)"
fill="#000000" stroke="none">
<path d="M2811 3890 c-170 -36 -289 -105 -467 -272 -110 -102 -207 -168 -300
-205 -56 -22 -86 -27 -159 -27 -82 -1 -96 2 -155 31 -36 18 -86 51 -112 74
-43 37 -48 45 -48 83 0 82 -70 126 -120 76 -20 -20 -20 -33 -20 -1264 l0
-1245 27 -21 c19 -15 35 -19 53 -15 58 14 55 -31 58 796 2 717 3 761 20 754
125 -53 284 -86 412 -87 168 -1 257 29 371 128 93 79 170 108 333 125 168 17
435 -14 698 -82 126 -33 152 -31 163 14 3 12 4 217 3 455 l-3 434 -30 24
c-104 85 -264 170 -385 204 -85 24 -268 35 -339 20z"/>
</g>
</svg>
